<?xml version="1.0" encoding="UTF-8"?><svg xmlns="http://www.w3.org/2000/svg" viewBox="0 0 375 100"><g id="a"/><g id="b"><g><polygon points="336.54 100 336.54 92.31 367.31 92.31 367.31 69.23 359.62 69.23 359.62 84.62 328.85 84.62 328.85 100 290.41 100 290.41 76.92 305.77 76.92 305.77 61.54 344.23 61.54 344.23 69.23 313.46 69.23 313.46 84.62 298.11 84.62 298.11 92.31 321.15 92.31 321.15 76.92 351.92 76.92 351.92 69.23 351.92 61.54 351.92 53.85 336.54 53.85 336.54 46.15 359.62 46.15 359.62 61.54 375 61.54 375 100 336.54 100" fill="#2a2a29"/><polygon points="367.31 7.69 359.62 7.69 359.62 38.46 328.85 38.46 328.85 53.85 298.08 53.85 298.08 69.23 282.6 69.23 282.71 100 198.08 100 198.08 92.31 274.98 92.31 274.88 61.54 290.38 61.54 290.38 53.85 290.38 46.15 290.38 30.77 313.46 30.77 313.46 38.46 298.08 38.46 298.08 46.15 321.15 46.15 321.15 30.77 351.92 30.77 351.92 0 375 0 375 53.85 367.31 53.85 367.31 7.69" fill="#2a2a29"/></g></g><g id="c"/></svg>