<?xml version="1.0" encoding="UTF-8"?><svg xmlns="http://www.w3.org/2000/svg" viewBox="0 0 375 100"><g id="a"/><g id="b"><g><path d="M30.74,84.52h23.05v-30.73l-7.68,7.68v15.37h-7.68v-18.53l15.37-15.37V15.37H30.74V84.52Zm7.68-61.47h7.68v16.66l-7.68,7.68V23.05Z" fill="#fff"/><path d="M92.2,84.52h23.05v-27.52l-7.68,7.68v12.15h-7.68v-15.33l15.37-15.37V15.37h-23.05V84.52Zm7.68-61.47h7.68v19.86l-7.68,7.68V23.05Z" fill="#fff"/><polygon points="61.47 88.98 69.15 81.34 69.15 23.05 73.67 23.05 81.3 15.37 61.47 15.37 61.47 88.98" fill="#fff"/><polygon points="76.84 92.21 69.15 92.21 61.47 99.89 84.52 99.89 84.52 23.05 76.84 30.73 76.84 92.21" fill="#fff"/><polygon points="88.97 7.68 96.65 0 23.05 0 15.37 0 0 0 0 7.68 15.37 7.68 15.37 84.52 23.05 84.52 23.05 7.68 88.97 7.68" fill="#fff"/><polygon points="99.89 7.68 122.94 7.68 122.94 84.52 130.62 84.52 130.62 0 107.57 0 99.89 7.68" fill="#bfa13e"/><path d="M138.31,0V84.52h23.05V0h-23.05Zm15.37,76.84h-7.68V7.68h7.68V76.84Z" fill="#bfa13e"/></g><g><path d="M218.06,45.72h3.57v1.72h-8.96v-1.72h3.61v-10.43l-3.17,1.06v-1.72l4.96-1.76v12.86Z" fill="#bfa13e"/><path d="M229.92,47.7c-.93,0-1.73-.22-2.42-.65-.68-.44-1.21-1.02-1.58-1.76-.37-.74-.64-1.53-.81-2.38-.17-.84-.26-1.75-.26-2.72,0-.69,.05-1.36,.14-2.01s.25-1.32,.49-2c.24-.68,.54-1.28,.9-1.77,.37-.5,.85-.91,1.46-1.23,.61-.32,1.3-.49,2.07-.49,.93,0,1.74,.22,2.43,.65,.69,.44,1.22,1.03,1.59,1.77,.37,.75,.64,1.54,.81,2.39,.17,.84,.26,1.74,.26,2.7,0,.89-.08,1.73-.24,2.54-.16,.81-.42,1.61-.78,2.39-.36,.78-.89,1.41-1.59,1.88-.7,.47-1.52,.71-2.48,.71Zm0-1.64c.64,0,1.18-.18,1.63-.53,.45-.35,.78-.83,.99-1.44,.21-.61,.37-1.23,.46-1.86s.14-1.31,.14-2.04c0-.77-.05-1.49-.16-2.14-.1-.65-.27-1.27-.5-1.86-.23-.59-.56-1.05-1-1.38s-.96-.5-1.57-.5-1.18,.18-1.63,.53c-.45,.35-.79,.84-1.01,1.45-.22,.62-.38,1.23-.47,1.86s-.14,1.3-.14,2.03c0,.77,.05,1.49,.16,2.15,.1,.66,.27,1.28,.5,1.86,.23,.58,.56,1.04,1,1.37,.44,.33,.96,.5,1.59,.5Zm.96-4.91c-.27,.27-.59,.4-.96,.4s-.69-.14-.95-.4c-.26-.27-.39-.58-.39-.94s.13-.69,.39-.96c.26-.27,.58-.4,.95-.4s.69,.14,.96,.4c.27,.27,.4,.59,.4,.96s-.13,.67-.4,.94Z" fill="#bfa13e"/><path d="M243.71,47.31c-.27,.28-.61,.43-1.01,.43s-.74-.14-1.01-.43c-.27-.28-.41-.61-.41-.99s.14-.72,.41-1c.27-.28,.6-.41,1.01-.41s.74,.14,1.01,.41c.27,.28,.4,.61,.4,1s-.14,.7-.4,.99Z" fill="#bfa13e"/><path d="M270.09,36.85v10.95c0,1.33-.32,2.31-.96,2.95-.64,.64-1.66,1.01-3.04,1.12l-.85-1.45c1.22-.15,2.04-.42,2.46-.8s.63-1.02,.63-1.92v-9.27h-2.93v-1.58h4.69Zm-.09-2.26c-.21,.21-.48,.31-.8,.31s-.58-.11-.79-.32-.31-.47-.31-.78,.11-.59,.32-.81c.21-.22,.47-.33,.78-.33s.58,.11,.8,.33c.21,.22,.32,.49,.32,.81s-.11,.58-.32,.79Z" fill="#bfa13e"/><path d="M280.73,47.7c-1.34,0-2.34-.38-3-1.15-.66-.77-.99-2.01-.99-3.72v-5.97h1.79v6.2c0,1.04,.22,1.79,.65,2.27,.44,.48,1.02,.72,1.75,.72,1.73,0,2.59-.98,2.59-2.95v-6.25h1.8v10.6h-1.8v-1.04c-.66,.86-1.6,1.29-2.8,1.29Z" fill="#bfa13e"/><path d="M294.21,36.6c1.29,0,2.26,.38,2.93,1.14s1,1.97,1,3.63v6.08h-1.76v-6.31c0-1.01-.23-1.75-.67-2.22-.45-.47-1.05-.71-1.79-.71-1.74,0-2.61,.96-2.61,2.88v6.35h-1.76v-10.6h1.66v1.27c.64-1.01,1.65-1.51,3.03-1.51Z" fill="#bfa13e"/><path d="M307.74,45.87h2.92v1.58h-7.61v-1.58h2.93v-7.45h-2.93v-1.58h4.69v9.02Zm-.89-10.97c-.3,0-.56-.11-.78-.32-.21-.21-.32-.47-.32-.78s.11-.59,.32-.81c.21-.22,.47-.33,.78-.33s.58,.11,.8,.33c.21,.22,.32,.49,.32,.81s-.11,.58-.32,.79c-.21,.21-.48,.31-.8,.31Z" fill="#bfa13e"/><path d="M327.64,47.45c0-.75,.09-1.44,.26-2.09s.38-1.18,.61-1.61c.24-.43,.57-.86,1-1.29,.43-.43,.8-.76,1.11-1.01,.31-.24,.74-.54,1.28-.9,.64-.47,1.11-.84,1.43-1.1,.32-.26,.63-.64,.93-1.12,.31-.48,.46-.99,.46-1.51,0-.73-.22-1.33-.66-1.81-.44-.47-1.04-.71-1.78-.71-.79,0-1.44,.19-1.94,.58-.51,.39-.85,.92-1.05,1.6l-1.58-.73c.26-.91,.81-1.66,1.63-2.23s1.8-.86,2.94-.86c1.33,0,2.37,.38,3.13,1.13,.76,.75,1.14,1.75,1.14,3,0,.64-.1,1.21-.29,1.72-.19,.51-.51,.99-.94,1.43-.44,.44-.82,.79-1.14,1.05-.32,.26-.81,.6-1.46,1.03-.91,.64-1.64,1.24-2.18,1.82-.54,.57-.84,1.2-.91,1.88h7.05v1.72h-9.02Z" fill="#bfa13e"/><path d="M344.94,47.7c-.93,0-1.73-.22-2.42-.65-.68-.44-1.21-1.02-1.58-1.76-.37-.74-.64-1.53-.81-2.38-.17-.84-.26-1.75-.26-2.72,0-.69,.05-1.36,.14-2.01s.25-1.32,.49-2c.24-.68,.54-1.28,.9-1.77,.37-.5,.85-.91,1.46-1.23,.61-.32,1.3-.49,2.07-.49,.93,0,1.74,.22,2.43,.65,.69,.44,1.22,1.03,1.59,1.77,.37,.75,.64,1.54,.81,2.39,.17,.84,.26,1.74,.26,2.7,0,.89-.08,1.73-.24,2.54-.16,.81-.42,1.61-.78,2.39-.36,.78-.89,1.41-1.59,1.88-.7,.47-1.52,.71-2.48,.71Zm0-1.64c.64,0,1.18-.18,1.63-.53,.45-.35,.78-.83,.99-1.44,.21-.61,.37-1.23,.46-1.86s.14-1.31,.14-2.04c0-.77-.05-1.49-.16-2.14-.1-.65-.27-1.27-.5-1.86-.23-.59-.56-1.05-1-1.38s-.96-.5-1.57-.5-1.18,.18-1.63,.53c-.45,.35-.79,.84-1.01,1.45-.22,.62-.38,1.23-.47,1.86s-.14,1.3-.14,2.03c0,.77,.05,1.49,.16,2.15,.1,.66,.27,1.28,.5,1.86,.23,.58,.56,1.04,1,1.37,.44,.33,.96,.5,1.59,.5Zm.96-4.91c-.27,.27-.59,.4-.96,.4s-.69-.14-.95-.4c-.26-.27-.39-.58-.39-.94s.13-.69,.39-.96c.26-.27,.58-.4,.95-.4s.69,.14,.96,.4c.27,.27,.4,.59,.4,.96s-.13,.67-.4,.94Z" fill="#bfa13e"/><path d="M353.2,47.45c0-.75,.09-1.44,.26-2.09s.38-1.18,.61-1.61c.24-.43,.57-.86,1-1.29,.43-.43,.8-.76,1.11-1.01,.31-.24,.74-.54,1.28-.9,.64-.47,1.11-.84,1.43-1.1,.32-.26,.63-.64,.93-1.12,.31-.48,.46-.99,.46-1.51,0-.73-.22-1.33-.66-1.81-.44-.47-1.04-.71-1.78-.71-.79,0-1.44,.19-1.94,.58-.51,.39-.85,.92-1.05,1.6l-1.58-.73c.26-.91,.81-1.66,1.63-2.23s1.8-.86,2.94-.86c1.33,0,2.37,.38,3.13,1.13,.76,.75,1.14,1.75,1.14,3,0,.64-.1,1.21-.29,1.72-.19,.51-.51,.99-.94,1.43-.44,.44-.82,.79-1.14,1.05-.32,.26-.81,.6-1.46,1.03-.91,.64-1.64,1.24-2.18,1.82-.54,.57-.84,1.2-.91,1.88h7.05v1.72h-9.02Z" fill="#bfa13e"/><path d="M365.98,47.45c0-.75,.09-1.44,.26-2.09s.38-1.18,.61-1.61c.24-.43,.57-.86,1-1.29,.43-.43,.8-.76,1.11-1.01,.31-.24,.74-.54,1.28-.9,.64-.47,1.11-.84,1.43-1.1,.32-.26,.63-.64,.93-1.12,.31-.48,.46-.99,.46-1.51,0-.73-.22-1.33-.66-1.81-.44-.47-1.04-.71-1.78-.71-.79,0-1.44,.19-1.94,.58-.51,.39-.85,.92-1.05,1.6l-1.58-.73c.26-.91,.81-1.66,1.63-2.23s1.8-.86,2.94-.86c1.33,0,2.37,.38,3.13,1.13,.76,.75,1.14,1.75,1.14,3,0,.64-.1,1.21-.29,1.72-.19,.51-.51,.99-.94,1.43-.44,.44-.82,.79-1.14,1.05-.32,.26-.81,.6-1.46,1.03-.91,.64-1.64,1.24-2.18,1.82-.54,.57-.84,1.2-.91,1.88h7.05v1.72h-9.02Z" fill="#bfa13e"/></g></g><g id="c"/></svg>